<svg width="18" height="18" viewBox="0 0 18 18" fill="none" xmlns="http://www.w3.org/2000/svg">
<path d="M16.8672 15.6973L12.8496 11.6797C12.75 11.6133 12.6504 11.5469 12.5508 11.5469H12.1191C13.1484 10.3516 13.8125 8.75781 13.8125 7.03125C13.8125 3.24609 10.6914 0.125 6.90625 0.125C3.08789 0.125 0 3.24609 0 7.03125C0 10.8496 3.08789 13.9375 6.90625 13.9375C8.63281 13.9375 10.1934 13.3066 11.4219 12.2773V12.709C11.4219 12.8086 11.4551 12.9082 11.5215 13.0078L15.5391 17.0254C15.7051 17.1914 15.9707 17.1914 16.1035 17.0254L16.8672 16.2617C17.0332 16.1289 17.0332 15.8633 16.8672 15.6973ZM6.90625 12.3438C3.95117 12.3438 1.59375 9.98633 1.59375 7.03125C1.59375 4.10938 3.95117 1.71875 6.90625 1.71875C9.82812 1.71875 12.2188 4.10938 12.2188 7.03125C12.2188 9.98633 9.82812 12.3438 6.90625 12.3438Z" fill="white"/>
</svg>
